<?xml version="1.0" standalone="no"?>
<!DOCTYPE svg PUBLIC "-//W3C//DTD SVG 20010904//EN"
 "http://www.w3.org/TR/2001/REC-SVG-20010904/DTD/svg10.dtd">
<svg version="1.0" xmlns="http://www.w3.org/2000/svg"
 width="700.000000pt" height="700.000000pt" viewBox="0 0 700.000000 700.000000"
 preserveAspectRatio="xMidYMid meet">
<metadata>
Created by potrace 1.14, written by Peter Selinger 2001-2017
</metadata>
<g transform="translate(0.000000,700.000000) scale(0.100000,-0.100000)"
fill="#000000" stroke="none">
<path d="M1465 6889 c-225 -30 -459 -122 -654 -260 -140 -98 -303 -272 -399
-424 -70 -112 -163 -339 -178 -436 -4 -22 -11 -39 -15 -39 -5 0 -6 -12 -3 -26
5 -20 4 -25 -6 -19 -9 6 -11 -3 -6 -36 4 -28 3 -37 -3 -24 -6 15 -12 -3 -22
-70 -12 -75 -14 -425 -14 -2060 0 -2213 -5 -2054 75 -2296 176 -531 610 -908
1170 -1015 89 -17 206 -19 1985 -22 1275 -2 1937 0 2035 8 223 16 361 51 547
140 381 181 649 485 783 889 80 242 75 83 75 2296 0 1654 -2 1984 -14 2060
-12 71 -16 85 -22 65 -6 -16 -7 -8 -3 24 4 36 3 46 -7 41 -9 -6 -10 -1 -5 19
4 15 2 26 -4 26 -5 0 -10 10 -10 23 0 37 -76 249 -120 337 -78 156 -175 285
-308 412 -194 184 -425 306 -707 371 -90 21 -96 21 -2095 23 -1150 1 -2035 -2
-2075 -7z m3397 -1112 c15 -7 52 -36 82 -65 l56 -53 0 -1578 0 -1578 -30 -38
c-17 -21 -37 -63 -46 -94 -70 -257 -193 -386 -426 -446 -85 -23 -319 -31 -389
-15 -129 30 -229 106 -282 214 -38 77 -50 147 -44 244 4 73 11 96 46 167 58
117 147 193 272 234 19 6 149 36 288 66 271 58 318 76 367 140 55 72 54 63 54
909 -1 615 -4 789 -14 817 -18 51 -81 125 -116 138 -24 8 -149 -15 -697 -125
-999 -201 -1153 -233 -1172 -243 -22 -12 -84 -81 -103 -113 -10 -19 -14 -251
-19 -1233 -5 -1123 -6 -1214 -23 -1270 -45 -153 -139 -274 -261 -337 -123 -64
-168 -73 -365 -73 -159 0 -180 2 -231 23 -127 51 -194 119 -250 253 -16 41
-38 83 -49 94 -38 41 -40 67 -8 107 16 21 42 70 59 110 53 131 144 226 258
269 30 11 166 47 303 79 271 64 329 88 380 152 61 77 58 15 58 1388 0 808 4
1276 10 1311 13 67 47 104 113 124 28 8 503 107 1056 219 553 113 1015 207
1026 209 36 8 70 6 97 -6z m-4665 -3164 c-1 -544 -2 -99 -2 987 0 1086 1 1531
2 988 2 -544 2 -1432 0 -1975z m6610 0 c-1 -544 -2 -99 -2 987 0 1086 1 1531
2 988 2 -544 2 -1432 0 -1975z m-6600 -1060 c-3 -10 -5 -4 -5 12 0 17 2 24 5
18 2 -7 2 -21 0 -30z m6590 0 c-3 -10 -5 -4 -5 12 0 17 2 24 5 18 2 -7 2 -21
0 -30z m-6580 -65 c-3 -7 -5 -2 -5 12 0 14 2 19 5 13 2 -7 2 -19 0 -25z m6570
0 c-3 -7 -5 -2 -5 12 0 14 2 19 5 13 2 -7 2 -19 0 -25z m-6560 -50 c-3 -8 -6
-5 -6 6 -1 11 2 17 5 13 3 -3 4 -12 1 -19z m6550 0 c-3 -8 -6 -5 -6 6 -1 11 2
17 5 13 3 -3 4 -12 1 -19z m-6540 -40 c-3 -8 -6 -5 -6 6 -1 11 2 17 5 13 3 -3
4 -12 1 -19z m6530 0 c-3 -8 -6 -5 -6 6 -1 11 2 17 5 13 3 -3 4 -12 1 -19z
m-76 -225 c-12 -20 -14 -14 -5 12 4 9 9 14 11 11 3 -2 0 -13 -6 -23z m-71
-143 c-6 -11 -13 -20 -16 -20 -2 0 0 9 6 20 6 11 13 20 16 20 2 0 0 -9 -6 -20z
m-70 -114 c0 -2 -8 -10 -17 -17 -16 -13 -17 -12 -4 4 13 16 21 21 21 13z
m-6055 -46 c10 -11 16 -20 13 -20 -3 0 -13 9 -23 20 -10 11 -16 20 -13 20 3 0
13 -9 23 -20z m6025 6 c0 -2 -8 -10 -17 -17 -16 -13 -17 -12 -4 4 13 16 21 21
21 13z m-5985 -56 c10 -11 16 -20 13 -20 -3 0 -13 9 -23 20 -10 11 -16 20 -13
20 3 0 13 -9 23 -20z m5955 17 c0 -2 -12 -14 -27 -28 l-28 -24 24 28 c23 25
31 32 31 24z m-5865 -117 c33 -33 57 -60 54 -60 -2 0 -31 27 -64 60 -33 33
-57 60 -54 60 2 0 31 -27 64 -60z m5815 57 c0 -1 -28 -29 -62 -62 l-63 -60 60
63 c55 58 65 67 65 59z m-5715 -147 c10 -11 16 -20 13 -20 -3 0 -13 9 -23 20
-10 11 -16 20 -13 20 3 0 13 -9 23 -20z m5575 17 c0 -2 -10 -12 -22 -23 l-23
-19 19 23 c18 21 26 27 26 19z m-5519 -64 c13 -16 12 -17 -3 -4 -10 7 -18 15
-18 17 0 8 8 3 21 -13z m5459 13 c0 -2 -8 -10 -17 -17 -16 -13 -17 -12 -4 4
13 16 21 21 21 13z m-5310 -112 c0 -2 -9 0 -20 6 -11 6 -20 13 -20 16 0 2 9 0
20 -6 11 -6 20 -13 20 -16z m95 -52 c-3 -3 -11 0 -18 7 -9 10 -8 11 6 5 10 -3
15 -9 12 -12z m4652 -108 c-3 -3 -12 -4 -19 -1 -8 3 -5 6 6 6 11 1 17 -2 13
-5z m-4280 -10 c-3 -3 -12 -4 -19 -1 -8 3 -5 6 6 6 11 1 17 -2 13 -5z m4230 0
c-3 -3 -12 -4 -19 -1 -8 3 -5 6 6 6 11 1 17 -2 13 -5z m-4174 -11 c-7 -2 -19
-2 -25 0 -7 3 -2 5 12 5 14 0 19 -2 13 -5z m4120 0 c-7 -2 -19 -2 -25 0 -7 3
-2 5 12 5 14 0 19 -2 13 -5z m-4025 -10 c-10 -2 -26 -2 -35 0 -10 3 -2 5 17 5
19 0 27 -2 18 -5z m3940 0 c-10 -2 -26 -2 -35 0 -10 3 -2 5 17 5 19 0 27 -2
18 -5z"/>
</g>
</svg>
